HIERARCHY
ROOT Hips
{
	OFFSET 0.000000 0.000000 0.000000
	CHANNELS 6 Xposition Yposition Zposition Zrotation Yrotation Xrotation 
	JOINT LowerBack
	{
		OFFSET 0.000000 0.000000 0.000000
		CHANNELS 3 Zrotation Yrotation Xrotation
		JOINT Spine
		{
			OFFSET 0.028270 2.035590 -0.193380
			CHANNELS 3 Zrotation Yrotation Xrotation
			JOINT Spine1
			{
				OFFSET 0.056720 2.048850 -0.042750
				CHANNELS 3 Zrotation Yrotation Xrotation
				JOINT Neck
				{
					OFFSET 0.000000 0.000000 0.000000
					CHANNELS 3 Zrotation Yrotation Xrotation
					JOINT Neck1
					{
						OFFSET -0.054170 1.746240 0.172020
						CHANNELS 3 Zrotation Yrotation Xrotation
						JOINT Head
						{
							OFFSET 0.104070 1.761360 -0.123970
							CHANNELS 3 Zrotation Yrotation Xrotation
							End Site
							{
								OFFSET 0.000000 0.000000 0.000000
							}
						}
					}
				}
				JOINT LeftShoulder
				{
					OFFSET 0.000000 0.000000 0.000000
					CHANNELS 3 Zrotation Yrotation Xrotation
					JOINT LeftArm
					{
						OFFSET 3.362410 1.200890 -0.311210
						CHANNELS 3 Zrotation Yrotation Xrotation
						JOINT LeftForeArm
						{
							OFFSET 4.983000 -0.000000 -0.000000
							CHANNELS 3 Zrotation Yrotation Xrotation
							JOINT LeftHand
							{
								OFFSET 3.483560 -0.000000 -0.000000
								CHANNELS 3 Zrotation Yrotation Xrotation
								JOINT LeftFingerBase
								{
									OFFSET 0.000000 0.000000 0.000000
									CHANNELS 3 Zrotation Yrotation Xrotation
									JOINT LeftHandIndex1
									{
										OFFSET 0.715260 -0.000000 -0.000000
										CHANNELS 3 Zrotation Yrotation Xrotation
										End Site
										{
											OFFSET 0.000000 0.000000 0.000000
										}
									}
								}
								JOINT LThumb
								{
									OFFSET 0.000000 0.000000 0.000000
									CHANNELS 3 Zrotation Yrotation Xrotation
									End Site
									{
										OFFSET 0.000000 0.000000 0.000000
									}
								}
							}
						}
					}
				}
				JOINT RightShoulder
				{
					OFFSET 0.000000 0.000000 0.000000
					CHANNELS 3 Zrotation Yrotation Xrotation
					JOINT RightArm
					{
						OFFSET -3.136600 1.374050 -0.404650
						CHANNELS 3 Zrotation Yrotation Xrotation
						JOINT RightForeArm
						{
							OFFSET -5.241900 -0.000000 -0.000000
							CHANNELS 3 Zrotation Yrotation Xrotation
							JOINT RightHand
							{
								OFFSET -3.444170 -0.000000 -0.000000
								CHANNELS 3 Zrotation Yrotation Xrotation
								JOINT RightFingerBase
								{
									OFFSET 0.000000 0.000000 0.000000
									CHANNELS 3 Zrotation Yrotation Xrotation
									JOINT RightHandIndex1
									{
										OFFSET -0.622530 -0.000000 -0.000000
										CHANNELS 3 Zrotation Yrotation Xrotation
										End Site
										{
											OFFSET 0.000000 0.000000 0.000000
										}
									}
								}
								JOINT RThumb
								{
									OFFSET 0.000000 0.000000 0.000000
									CHANNELS 3 Zrotation Yrotation Xrotation
									End Site
									{
										OFFSET 0.000000 0.000000 0.000000
									}
								}
							}
						}
					}
				}
			}
		}
	}
}
}
MOTION
Frames: 9
Frame Time: 0.008333
-11.677052 16.360405 -2.267622 168.562646 82.055297 167.506268 0.845713 -5.515609 -0.927438 -0.382318 -5.728947 -2.214541 -6.492962 -5.628859 3.278536 11.138360 -20.466124 -11.621545 -2.869606 -0.168421 -1.011317 0.000000 0.000000 0.000000 1.616378 16.477802 0.941148 -31.926109 -0.652983 -7.146553 -1.035717 -65.254882 -0.014879 4.255253 0.336177 0.005581 -0.126769 0.219567 0.000000 0.000000 0.000000 0.000000 0.000000 0.000000 0.000000 19.949321 -18.983086 -0.059186 83.080956 -19.905792 -16.939743 3.986220 15.991390 0.007671 0.690680 3.827897 0.020255 0.099345 -0.027469 -0.000000 0.000000 0.000000 0.000000 0.000000 0.000000 0.000000 
-11.468102 16.348067 -2.243692 168.562745 81.737079 167.250940 0.831319 -5.539460 -0.865639 -0.382753 -5.751633 -2.202417 -6.474850 -5.651960 3.272670 11.106199 -20.422461 -11.599300 -2.873928 -0.169037 -1.006133 0.000000 0.000000 0.000000 1.682595 16.457028 0.955910 -32.151467 -0.325033 -7.017894 -1.065728 -64.907134 -0.013469 3.969785 0.327892 0.005072 -0.124333 0.215184 0.000000 0.000000 0.000000 0.000000 0.000000 0.000000 0.000000 19.946697 -18.938912 -0.072195 83.104701 -19.679084 -17.652285 3.998329 15.709941 0.007640 0.808952 3.800858 0.024150 0.098614 -0.028502 -0.000000 0.000000 0.000000 0.000000 0.000000 0.000000 0.000000 
-11.264722 16.336098 -2.221308 168.831329 81.479741 167.269291 0.870601 -5.540437 -0.769578 -0.374889 -5.753730 -2.188318 -6.461033 -5.654756 3.256745 11.073665 -20.329266 -11.571727 -2.878617 -0.169748 -0.999815 0.000000 0.000000 0.000000 1.748305 16.418496 0.973259 -32.515487 0.030572 -6.840742 -1.105966 -64.436595 -0.012312 3.745822 0.352834 0.005870 -0.123298 0.209524 0.000000 0.000000 0.000000 0.000000 0.000000 0.000000 0.000000 19.917268 -18.833870 -0.078004 83.088174 -19.327298 -18.392319 4.008059 15.408586 0.007518 0.918576 3.724506 0.027247 0.097829 -0.029449 -0.000000 0.000000 0.000000 0.000000 0.000000 0.000000 0.000000 
-11.067254 16.324469 -2.200372 169.298878 81.298053 167.500036 0.958422 -5.518042 -0.644461 -0.359610 -5.734296 -2.173116 -6.451078 -5.636400 3.231168 11.043042 -20.192248 -11.539483 -2.881704 -0.170388 -0.992441 0.000000 0.000000 0.000000 1.811629 16.368346 0.991657 -33.002802 0.424540 -6.610996 -1.154408 -63.867867 -0.011474 3.601320 0.409164 0.007774 -0.123806 0.202750 0.000000 0.000000 0.000000 0.000000 0.000000 0.000000 0.000000 19.855652 -18.672850 -0.076355 83.024174 -18.849506 -19.117407 4.014417 15.091266 0.007341 1.005075 3.618074 0.029241 0.097115 -0.030378 -0.000000 0.000000 0.000000 0.000000 0.000000 0.000000 0.000000 
-10.875757 16.313221 -2.180514 169.895458 81.202296 167.882332 1.084478 -5.472788 -0.498211 -0.338956 -5.693143 -2.157960 -6.445190 -5.596726 3.196391 11.017784 -20.013910 -11.501909 -2.882294 -0.170901 -0.983750 0.000000 0.000000 0.000000 1.873126 16.313080 1.009814 -33.596033 0.866682 -6.322035 -1.209071 -63.223555 -0.010978 3.545382 0.493520 0.010685 -0.125852 0.195000 0.000000 0.000000 0.000000 0.000000 0.000000 0.000000 0.000000 19.762242 -18.457469 -0.068090 82.908388 -18.255958 -19.806303 4.016808 14.771381 0.007151 1.060035 3.502941 0.030036 0.096561 -0.031411 -0.000000 0.000000 0.000000 0.000000 0.000000 0.000000 0.000000 
-10.689989 16.302443 -2.161232 170.563417 81.198105 168.367883 1.236068 -5.405958 -0.341444 -0.315427 -5.630785 -2.144349 -6.443794 -5.536230 3.153007 11.001397 -19.798106 -11.457685 -2.880216 -0.171309 -0.973288 0.000000 0.000000 0.000000 1.933518 16.255987 1.026646 -34.276666 1.369852 -5.968374 -1.268115 -62.524899 -0.010784 3.576373 0.600888 0.014502 -0.129271 0.186358 0.000000 0.000000 0.000000 0.000000 0.000000 0.000000 0.000000 19.641316 -18.190955 -0.054790 82.736564 -17.562869 -20.441854 4.014856 14.468058 0.006988 1.078119 3.401262 0.029733 0.096234 -0.032688 -0.000000 0.000000 0.000000 0.000000 0.000000 0.000000 0.000000 
-10.509431 16.292336 -2.141961 171.252078 81.286499 168.914382 1.398479 -5.319628 -0.185385 -0.291653 -5.548504 -2.133482 -6.446530 -5.456134 3.102981 10.996481 -19.555552 -11.406352 -2.874854 -0.171583 -0.960827 0.000000 0.000000 0.000000 1.991674 16.201706 1.040923 -35.025742 1.941204 -5.544609 -1.330065 -61.787751 -0.010819 3.682986 0.724731 0.019418 -0.133770 0.176888 0.000000 0.000000 0.000000 0.000000 0.000000 0.000000 0.000000 19.497069 -17.884665 -0.038633 82.503975 -16.784558 -20.990442 4.008198 14.198723 0.006890 1.051509 3.336628 0.028431 0.096217 -0.034326 -0.000000 0.000000 0.000000 0.000000 0.000000 0.000000 0.000000 
-10.333425 16.283180 -2.122101 171.914714 81.464206 169.481130 1.556361 -5.216413 -0.041663 -0.270347 -5.448205 -2.126595 -6.453073 -5.358256 3.048236 11.004987 -19.297144 -11.346956 -2.866268 -0.171757 -0.946007 0.000000 0.000000 0.000000 2.045824 16.151991 1.051663 -35.825599 2.587197 -5.049002 -1.393987 -61.023449 -0.010975 3.843815 0.858951 0.025239 -0.138955 0.166593 -0.000000 0.000000 0.000000 0.000000 0.000000 0.000000 0.000000 19.336448 -17.550504 -0.022190 82.206892 -15.939815 -21.423333 3.996856 13.985026 0.006888 0.977047 3.327349 0.026233 0.096555 -0.036408 -0.000000 0.000000 0.000000 0.000000 0.000000 0.000000 0.000000 
-10.161164 16.275307 -2.101020 172.501754 81.723193 170.022527 1.694287 -5.099359 0.079791 -0.254143 -5.332312 -2.124270 -6.462875 -5.244873 2.991901 11.027957 -19.034120 -11.279076 -2.854740 -0.171869 -0.928654 0.000000 0.000000 0.000000 2.093400 16.114510 1.057951 -36.660951 3.299437 -4.480612 -1.459991 -60.230639 -0.011131 4.031666 0.996561 0.031859 -0.144418 0.155484 0.000000 0.000000 0.000000 0.000000 0.000000 0.000000 0.000000 19.167828 -17.201567 -0.008800 81.843492 -15.046617 -21.714517 3.981310 13.849957 0.007000 0.857141 3.385491 0.023038 0.097256 -0.038972 -0.000000 0.000000 0.000000 0.000000 0.000000 0.000000 0.000000 
